<svg width="22" height="22" viewBox="0 0 22 22" fill="none" xmlns="http://www.w3.org/2000/svg">
<path fill-rule="evenodd" clip-rule="evenodd" d="M1.375 11C1.375 13.5527 2.38906 16.0009 4.1941 17.8059C5.99914 19.6109 8.44729 20.625 11 20.625C13.5527 20.625 16.0009 19.6109 17.8059 17.8059C19.6109 16.0009 20.625 13.5527 20.625 11C20.625 8.44729 19.6109 5.99913 17.8059 4.1941C16.0009 2.38906 13.5527 1.375 11 1.375C8.44729 1.375 5.99914 2.38906 4.1941 4.1941C2.38906 5.99913 1.375 8.44729 1.375 11ZM22 11C22 13.9174 20.8411 16.7153 18.7782 18.7782C16.7153 20.8411 13.9174 22 11 22C8.08262 22 5.28473 20.8411 3.22183 18.7782C1.15893 16.7153 0 13.9174 0 11C0 8.08262 1.15893 5.28473 3.22183 3.22183C5.28473 1.15893 8.08262 0 11 0C13.9174 0 16.7153 1.15893 18.7782 3.22183C20.8411 5.28473 22 8.08262 22 11ZM11.6875 6.1875C11.6875 6.00516 11.6151 5.8303 11.4861 5.70136C11.3572 5.57243 11.1823 5.5 11 5.5C10.8177 5.5 10.6428 5.57243 10.5139 5.70136C10.3849 5.8303 10.3125 6.00516 10.3125 6.1875L10.3125 14.1529L7.36175 11.2007C7.23266 11.0717 7.05757 10.9991 6.875 10.9991C6.69243 10.9991 6.51734 11.0717 6.38825 11.2007C6.25916 11.3298 6.18663 11.5049 6.18663 11.6875C6.18663 11.8701 6.25916 12.0452 6.38825 12.1742L10.5133 16.2992C10.5771 16.3633 10.653 16.4141 10.7365 16.4487C10.82 16.4834 10.9096 16.5012 11 16.5012C11.0904 16.5012 11.18 16.4834 11.2635 16.4487C11.347 16.4141 11.4229 16.3633 11.4868 16.2992L15.6118 12.1742C15.7408 12.0452 15.8134 11.8701 15.8134 11.6875C15.8134 11.5049 15.7408 11.3298 15.6118 11.2007C15.4827 11.0717 15.3076 10.9991 15.125 10.9991C14.9424 10.9991 14.7673 11.0717 14.6383 11.2007L11.6875 14.1529L11.6875 6.1875Z" fill="#040453"/>
</svg>
