<svg width="22" height="22" viewBox="0 0 22 22" fill="none" xmlns="http://www.w3.org/2000/svg">
<path fill-rule="evenodd" clip-rule="evenodd" d="M20.625 11C20.625 8.44729 19.6109 5.99914 17.8059 4.1941C16.0009 2.38906 13.5527 1.375 11 1.375C8.44729 1.375 5.99914 2.38906 4.1941 4.1941C2.38906 5.99913 1.375 8.44729 1.375 11C1.375 13.5527 2.38906 16.0009 4.1941 17.8059C5.99913 19.6109 8.44729 20.625 11 20.625C13.5527 20.625 16.0009 19.6109 17.8059 17.8059C19.6109 16.0009 20.625 13.5527 20.625 11ZM-9.45698e-07 11C-6.90653e-07 8.08262 1.15892 5.28473 3.22182 3.22182C5.28473 1.15892 8.08262 6.90652e-07 11 9.45698e-07C13.9174 1.20074e-06 16.7153 1.15893 18.7782 3.22183C20.8411 5.28473 22 8.08262 22 11C22 13.9174 20.8411 16.7153 18.7782 18.7782C16.7153 20.8411 13.9174 22 11 22C8.08262 22 5.28472 20.8411 3.22182 18.7782C1.15892 16.7153 -1.20074e-06 13.9174 -9.45698e-07 11ZM10.3125 15.8125C10.3125 15.9948 10.3849 16.1697 10.5139 16.2986C10.6428 16.4276 10.8177 16.5 11 16.5C11.1823 16.5 11.3572 16.4276 11.4861 16.2986C11.6151 16.1697 11.6875 15.9948 11.6875 15.8125L11.6875 7.84713L14.6383 10.7993C14.7673 10.9283 14.9424 11.0009 15.125 11.0009C15.3076 11.0009 15.4827 10.9283 15.6118 10.7993C15.7408 10.6702 15.8134 10.4951 15.8134 10.3125C15.8134 10.1299 15.7408 9.95484 15.6118 9.82575L11.4868 5.70075C11.4229 5.63673 11.347 5.58593 11.2635 5.55127C11.18 5.51661 11.0904 5.49877 11 5.49877C10.9096 5.49877 10.82 5.51661 10.7365 5.55127C10.653 5.58593 10.5771 5.63673 10.5132 5.70075L6.38825 9.82575C6.25916 9.95484 6.18663 10.1299 6.18663 10.3125C6.18663 10.4951 6.25916 10.6702 6.38825 10.7993C6.51734 10.9283 6.69243 11.0009 6.875 11.0009C7.05757 11.0009 7.23266 10.9283 7.36175 10.7993L10.3125 7.84712L10.3125 15.8125Z" fill="#6449C3"/>
</svg>
