<svg width="21" height="26" viewBox="0 0 21 26" fill="none" xmlns="http://www.w3.org/2000/svg">
<path d="M10.0015 0C7.35026 0.00319472 4.80854 1.08037 2.93386 2.99522C1.05917 4.91008 0.00460318 7.50627 0.00147548 10.2143C-0.00169987 12.4273 0.706002 14.5802 2.01602 16.3429C2.01602 16.3429 2.28875 16.7096 2.33329 16.7626L10.0015 26L17.6733 16.7579C17.7133 16.7087 17.9869 16.3429 17.9869 16.3429L17.9878 16.3401C19.2972 14.5782 20.0046 12.4263 20.0015 10.2143C19.9983 7.50627 18.9438 4.91008 17.0691 2.99522C15.1944 1.08037 12.6527 0.00319472 10.0015 0ZM10.0015 13.9286C9.28226 13.9286 8.57921 13.7107 7.98121 13.3026C7.38322 12.8945 6.91713 12.3144 6.64191 11.6357C6.36668 10.957 6.29467 10.2102 6.43498 9.48966C6.57529 8.76916 6.92162 8.10734 7.43017 7.58789C7.93872 7.06844 8.58666 6.71468 9.29205 6.57137C9.99743 6.42805 10.7286 6.50161 11.393 6.78273C12.0575 7.06386 12.6254 7.53993 13.025 8.15074C13.4246 8.76155 13.6378 9.47967 13.6378 10.2143C13.6366 11.199 13.2531 12.143 12.5714 12.8393C11.8897 13.5356 10.9655 13.9273 10.0015 13.9286Z" fill="#754FFE"/>
</svg>
