<svg width="54" height="42" viewBox="0 0 54 42" fill="none" xmlns="http://www.w3.org/2000/svg">
<path d="M9.65628 1.26564C6.42191 2.25002 3.51566 4.73439 1.87503 7.87502C0.60941 10.3125 0.656285 15.9375 2.01566 18.4688C3.89066 22.0313 9.60941 25.875 11.7657 25.0313C13.0313 24.5625 12.375 23.7656 10.0313 22.875C6.70316 21.6094 5.15628 20.25 3.75003 17.4844C1.26566 12.375 3.18753 6.65627 8.20316 4.03127C11.5313 2.29689 14.25 2.29689 17.6719 3.98439C20.9532 5.67189 22.7344 8.20314 23.0625 11.6719C23.5313 16.5938 19.6407 28.3125 14.7657 36.3281C12.9375 39.375 12.5157 40.4531 12.9375 40.875C14.5782 42.4688 21.2344 29.2031 24 18.8906C25.3594 13.7344 25.3594 10.6406 24 7.82814C21.5625 2.67189 14.9532 -0.32811 9.65628 1.26564Z" fill="white" fill-opacity="0.19"/>
<path d="M37.7813 1.26562C34.4532 2.34374 31.6407 4.73437 30 7.87499C28.7344 10.3125 28.7813 15.9375 30.1407 18.4687C32.0157 22.0312 37.7344 25.875 39.8907 25.0312C41.1563 24.5625 40.5 23.7656 38.1563 22.875C34.8282 21.6094 33.2813 20.25 31.875 17.4844C27.375 8.20312 37.6875 -0.984383 46.5469 4.40624C49.8282 6.42187 51.5625 9.84374 51.1875 13.7812C50.7188 19.4531 46.6875 30 42.1407 37.5469C40.875 39.6562 40.5938 40.4062 41.0625 40.8281C41.8594 41.625 43.3594 39.6094 46.4063 33.6562C50.2969 26.0625 53.25 16.875 53.25 12.4687C53.2032 8.57812 50.2969 4.12499 46.4532 2.15624C44.4375 1.12499 39.7032 0.609367 37.7813 1.26562Z" fill="white" fill-opacity="0.19"/>
</svg>
