<svg width="22" height="22" viewBox="0 0 22 22" fill="none" xmlns="http://www.w3.org/2000/svg">
<path d="M14.5197 15.4525L16.3397 13.6325C16.5848 13.3904 16.8949 13.2247 17.2324 13.1555C17.5699 13.0863 17.9203 13.1165 18.2409 13.2425L20.459 14.1282C20.7831 14.2597 21.0609 14.4842 21.2576 14.7734C21.4542 15.0625 21.5608 15.4035 21.564 15.7532V19.8157C21.5622 20.0535 21.5121 20.2886 21.417 20.5066C21.3219 20.7247 21.1837 20.9212 21.0106 21.0844C20.8375 21.2476 20.6332 21.3741 20.4099 21.4563C20.1867 21.5385 19.9491 21.5746 19.7115 21.5625C4.16842 20.5957 1.03217 7.43316 0.439043 2.39566C0.41151 2.14828 0.436666 1.89788 0.512857 1.66092C0.589048 1.42397 0.714547 1.20583 0.881098 1.02086C1.04765 0.835885 1.25148 0.688275 1.47917 0.587735C1.70687 0.487195 1.95327 0.436006 2.20217 0.437533H6.12654C6.47674 0.43857 6.81861 0.54435 7.1082 0.74127C7.39779 0.938189 7.62184 1.21724 7.75154 1.54253L8.63717 3.76066C8.76737 4.08003 8.80059 4.43068 8.73268 4.76882C8.66476 5.10696 8.49872 5.41759 8.25529 5.66191L6.43529 7.48191C6.43529 7.48191 7.48342 14.575 14.5197 15.4525Z" fill="#754FFE"/>
</svg>
