<svg width="18" height="18" viewBox="0 0 18 18" fill="none" xmlns="http://www.w3.org/2000/svg">
<path d="M9 0.25C4.16797 0.25 0.25 4.16797 0.25 9C0.25 13.832 4.16797 17.75 9 17.75C13.832 17.75 17.75 13.832 17.75 9C17.75 4.16797 13.832 0.25 9 0.25ZM11.8145 9.13477L7.54883 12.2383C7.52544 12.2551 7.49788 12.2651 7.46916 12.2673C7.44045 12.2694 7.41169 12.2636 7.38605 12.2505C7.36042 12.2374 7.3389 12.2175 7.32386 12.1929C7.30881 12.1684 7.30083 12.1401 7.30078 12.1113V5.9082C7.30069 5.87935 7.30858 5.85103 7.3236 5.82639C7.33861 5.80175 7.36016 5.78175 7.38584 5.7686C7.41153 5.75545 7.44035 5.74968 7.46912 5.75191C7.49789 5.75414 7.52548 5.7643 7.54883 5.78125L11.8145 8.88281C11.8346 8.89706 11.851 8.91594 11.8624 8.93786C11.8737 8.95978 11.8797 8.98411 11.8797 9.00879C11.8797 9.03347 11.8737 9.05779 11.8624 9.07971C11.851 9.10163 11.8346 9.12051 11.8145 9.13477Z" fill="#52526C"/>
</svg>
